<svg width="54" height="54" xmlns="http://www.w3.org/2000/svg" fill="none">

 <g>
  <title>Layer 1</title>
  <g id="svg_3">
   <path id="svg_1" fill-opacity="0.6" fill="#7CAD47" d="m52.27495,31.05581c-3.281,5.1869 -10.2695,6.776 -15.5129,3.5387c-1.5335,-0.9468 -2.8145,-2.2452 -3.7349,-3.7857c-0.9204,-1.5404 -1.4532,-3.2777 -1.5533,-5.0651c-0.0159,-0.3534 -0.1019,-0.7002 -0.2532,-1.0207c-0.1513,-0.3204 -0.3648,-0.6081 -0.6284,-0.8467c-0.2637,-0.2385 -0.5722,-0.4233 -0.9079,-0.5436c-0.3357,-0.1203 -0.6921,-0.1739 -1.0488,-0.1576c-1.2038,0.0684 -2.4037,-0.1885 -3.4715,-0.7433c-1.0679,-0.5548 -1.9635,-1.3867 -2.5912,-2.4067c-0.6277,-1.01996 -0.9639,-2.18976 -0.9726,-3.38436c-0.0088,-1.1946 0.3102,-2.36911 0.9229,-3.39801c0.6127,-1.02891 1.4961,-1.87354 2.5557,-2.44365c1.0596,-0.5701 2.2556,-0.84425 3.4603,-0.79314c1.2046,0.0511 2.3726,0.42554 3.3792,1.08329c1.0065,0.65776 1.8137,1.57411 2.3354,2.65114c0.312,0.64643 0.8689,1.14473 1.5496,1.38661c0.6808,0.24187 1.4304,0.20776 2.0859,-0.09492c2.2036,-1.03781 4.6876,-1.33916 7.0789,-0.8588c2.3912,0.48037 4.5606,1.71653 6.1822,3.52277c1.6216,1.80624 2.6079,4.08507 2.8107,6.49407c0.2028,2.409 -0.3889,4.8182 -1.6861,6.8657z"/>
   <path id="svg_2" fill-opacity="0.7" fill="#004483" d="m49.37135,32.55931c-0.0288,1.7993 -0.5808,3.5512 -1.5884,5.0422c-1.0076,1.491 -2.4275,2.6567 -4.0863,3.3549c-1.6589,0.6982 -3.4852,0.8988 -5.2561,0.5772c-1.7709,-0.3216 -3.4099,-1.1514 -4.7173,-2.3882c-1.7035,-1.6117 -4.3877,-1.5163 -6.0516,0.1364c-1.5154,1.5094 -3.315,2.7036 -5.2948,3.5134c-1.9799,0.8099 -4.1007,1.2192 -6.2398,1.2045c-8.94583,-0.0504 -16.22227,-7.4396 -16.13635,-16.3833c0.03578,-3.7271 1.35387,-7.3282 3.73272,-10.19809c2.37885,-2.86987 5.67342,-4.83349 9.32993,-5.5608c3.6565,-0.72731 7.4519,-0.17396 10.7484,1.56703c3.2964,1.741 5.8929,4.5635 7.3528,7.99306c0.4456,1.0341 1.2737,1.856 2.3113,2.2938c1.0376,0.4379 2.2043,0.4578 3.2562,0.0556c1.4175,-0.5514 2.949,-0.7459 4.4593,-0.5661c1.5104,0.1797 2.9534,0.728 4.2019,1.5967c1.2484,0.8686 2.2641,2.0309 2.9573,3.3845c0.6933,1.3535 1.0429,2.8568 1.0181,4.3772l0.0027,0z"/>
  </g>
 </g>
</svg>
